# xmcd
#
# Track frame offsets: 
#        150
#        13223
#        26491
#        40732
#        54378
#        69539
#        84440
#        96909
#        110630
#        126277
#        143906
#        165023
#        182431
#        201582
#        216839
#        234398
#        250808
#
# Disc length: 3558 seconds
#
# Revision: 0
# Processed by: cddbd v1.5.2PL0 Copyright (c) Steve Scherf et al.
# Submitted via: ExactAudioCopyFreeDBPlugin 1.0
#
DISCID=e70de411
DTITLE=Grant and Forsyth - 1996 - Hun Grootste Successen Cd 2
DYEAR=1996
DGENRE=
TTITLE0=Peep Purple
TTITLE1=Love Story
TTITLE2=I Only Have Eyes For You
TTITLE3=Turning Over New Leaves
TTITLE4=Somewhere Between
TTITLE5=Queen Of Hearts
TTITLE6=Love Letters
TTITLE7=Warm Feeling
TTITLE8=Always On My Mind
TTITLE9=Seeds
TTITLE10=She Believes In Me
TTITLE11=Standing On The Edge Of Goodbye
TTITLE12=Don'
TTITLE13=Storybook Children
TTITLE14=Just Can't Help Believing
TTITLE15=Without You
TTITLE16=The Greatest Gift Of All
EXTD=
EXTT0=
EXTT1=
EXTT2=
EXTT3=
EXTT4=
EXTT5=
EXTT6=
EXTT7=
EXTT8=
EXTT9=
EXTT10=
EXTT11=
EXTT12=
EXTT13=
EXTT14=
EXTT15=
EXTT16=
PLAYORDER=
